# File created by Blade
# Date/Time:  Wed Jan 21 15:23:53 2015
#---------------------------------------------------------
:version 1.10
:name HOM
:units
  mass 1.0
  length 1.000000
  angle deg
:documentation
     Acclaim Skeleton File
:root
   axis xyz
   order TX TY TZ RX RY RZ
   position 0.000000 0.000000 0.000000
   orientation 0 0 0
:bonedata
   begin
      id 1
      name Spine_dum
      direction 0.000000 1.000000 0.000000
      length 7.067664
      axis 0.0 0.0 0.0 xyz
   end
   begin
      id 2
      name LeftUpLeg_dum
      direction 1.000000 0.000000 0.000000
      length 4.013002
      axis 0.0 0.0 0.0 xyz
   end
   begin
      id 3
      name RightUpLeg_dum
      direction -1.000000 0.000000 0.000000
      length 4.013002
      axis 0.0 0.0 0.0 xyz
   end
   begin
      id 4
      name Spine
      direction 0.000000 1.000000 0.000000
      length 0.000000
      axis 0.0 0.0 0.0 xyz
      dof rx ry rz
   end
   begin
      id 5
      name Spine_dum1
      direction 0.000000 1.000000 0.000000
      length 15.039886
      axis 0.0 0.0 0.0 xyz
   end
   begin
      id 6
      name Spine_dum2
      direction 0.000000 1.000000 0.000000
      length 10.530368
      axis 0.0 0.0 0.0 xyz
   end
   begin
      id 7
      name Spine_dum3
      direction 0.000000 1.000000 0.000000
      length 10.530368
      axis 0.0 0.0 0.0 xyz
   end
   begin
      id 8
      name Head
      direction 0.000000 1.000000 0.000000
      length 4.527550
      axis 0.0 0.0 0.0 xyz
      dof rx ry rz
   end
   begin
      id 9
      name LeftShoulder
      direction 1.000000 0.000000 0.000000
      length 7.028855
      axis 0.0 0.0 -90.0 xyz
      dof rx ry rz
   end
   begin
      id 10
      name LeftArm
      direction 1.000000 0.000000 0.000000
      length 10.797705
      axis 0.0 0.0 -90.0 xyz
      dof rx ry rz
   end
   begin
      id 11
      name LeftForeArm
      direction 1.000000 0.000000 0.000000
      length 7.907442
      axis 0.0 0.0 -90.0 xyz
      dof ry rz rx
   end
   begin
      id 12
      name LeftHand
      direction 0.000000 0.000000 0.000000
      length 0.000000
      axis 0.0 0.0 -90.0 xyz
      dof rx ry rz
   end
   begin
      id 13
      name LeftHand_dum1
      direction 0.000000 0.000000 0.000000
      length 0.000000
      axis 0.0 0.0 -90.0 xyz
   end
   begin
      id 14
      name LeftHand_dum2
      direction 1.000000 0.000000 0.000000
      length 3.937000
      axis 0.0 0.0 -90.0 xyz
   end
   begin
      id 15
      name LeftHandThumb1
      direction 0.000000 0.000000 1.000000
      length 3.937000
      axis 0.0 0.0 -90.0 xyz
      dof rx rz ry
   end
   begin
      id 16
      name RightShoulder
      direction -1.000000 0.000000 0.000000
      length 7.028855
      axis 0.0 0.0 90.0 xyz
      dof rx ry rz
   end
   begin
      id 17
      name RightArm
      direction -1.000000 0.000000 0.000000
      length 10.797705
      axis 0.0 0.0 90.0 xyz
      dof rx ry rz
   end
   begin
      id 18
      name RightForeArm
      direction -1.000000 0.000000 0.000000
      length 7.907442
      axis 0.0 0.0 90.0 xyz
      dof ry rz rx
   end
   begin
      id 19
      name RightHand
      direction 0.000000 0.000000 0.000000
      length 0.000000
      axis 0.0 0.0 90.0 xyz
      dof rx ry rz
   end
   begin
      id 20
      name RightHand_dum1
      direction 0.000000 0.000000 0.000000
      length 0.000000
      axis 0.0 0.0 90.0 xyz
   end
   begin
      id 21
      name RightHand_dum2
      direction -1.000000 0.000000 0.000000
      length 3.937000
      axis 0.0 0.0 90.0 xyz
   end
   begin
      id 22
      name RightHandThumb1
      direction 0.000000 0.000000 1.000000
      length 3.937000
      axis 0.0 0.0 90.0 xyz
      dof rx rz ry
   end
   begin
      id 23
      name LeftUpLeg
      direction 0.000000 -1.000000 0.000000
      length 16.899758
      axis 0.0 0.0 0.0 xyz
      dof rx ry rz
   end
   begin
      id 24
      name LeftLeg
      direction 0.000000 -1.000000 0.000000
      length 17.389183
      axis 0.0 0.0 0.0 xyz
      dof rx ry rz
   end
   begin
      id 25
      name LeftFoot
      direction 0.000000 -0.258819 0.965926
      length 4.924528
      axis 15.0 0.0 0.0 xyz
      dof rx ry rz
   end
   begin
      id 26
      name LeftToeBase
      direction 0.000000 0.000000 1.000000
      length 2.952750
      axis 0.0 0.0 0.0 xyz
      dof rx ry rz
   end
   begin
      id 27
      name RightUpLeg
      direction 0.000000 -1.000000 0.000000
      length 16.899758
      axis 0.0 0.0 0.0 xyz
      dof rx ry rz
   end
   begin
      id 28
      name RightLeg
      direction 0.000000 -1.000000 0.000000
      length 17.389183
      axis 0.0 0.0 0.0 xyz
      dof rx ry rz
   end
   begin
      id 29
      name RightFoot
      direction 0.000000 -0.258819 0.965926
      length 4.924528
      axis 15.0 0.0 0.0 xyz
      dof rx ry rz
   end
   begin
      id 30
      name RightToeBase
      direction 0.000000 0.000000 1.000000
      length 2.952750
      axis 0.0 0.0 0.0 xyz
      dof rx ry rz
   end
:hierarchy
   begin
      root Spine_dum LeftUpLeg_dum RightUpLeg_dum
      Spine_dum Spine
      LeftUpLeg_dum LeftUpLeg
      RightUpLeg_dum RightUpLeg
      Spine Spine_dum1 Spine_dum2 Spine_dum3
      Spine_dum1 Head
      Spine_dum2 LeftShoulder
      Spine_dum3 RightShoulder
      LeftShoulder LeftArm
      LeftArm LeftForeArm
      LeftForeArm LeftHand
      LeftHand LeftHand_dum1 LeftHand_dum2
      LeftHand_dum1 LeftHandThumb1
      RightShoulder RightArm
      RightArm RightForeArm
      RightForeArm RightHand
      RightHand RightHand_dum1 RightHand_dum2
      RightHand_dum1 RightHandThumb1
      LeftUpLeg LeftLeg
      LeftLeg LeftFoot
      LeftFoot LeftToeBase
      RightUpLeg RightLeg
      RightLeg RightFoot
      RightFoot RightToeBase
   end

# File created by Blade
# Date/Time:  Wed Jan 21 15:23:43 2015
# Frame Rate: 120.000 fps
#------------------------------------------------------
:FULLY-SPECIFIED
:DEGREES
166
root 25.826909 34.876712 -21.355126 -179.402789 5.135049 -180.155414
Spine 0.556961 0.492916 -1.572781
Head 4.627072 -0.976402 1.493944
LeftShoulder -11.484051 -24.115296 -2.598789
LeftArm -19.642107 4.338052 -71.264954
LeftForeArm 7.373791 -0.000000 19.321818
LeftHand -4.563372 -0.000000 2.423037
LeftHandThumb1 -26.253704 0.000000 33.147579
RightShoulder -8.268590 -12.260014 7.021015
RightArm 17.627289 -11.868493 66.717777
RightForeArm -29.634337 -0.000000 25.979098
RightHand -0.711277 -0.000000 11.011261
RightHandThumb1 -24.326973 -0.000000 -32.862282
LeftUpLeg -1.834506 7.999901 8.566733
LeftLeg 11.153939 -0.000000 -0.000000
LeftFoot -26.387728 33.110219 -18.362642
LeftToeBase 25.340202 -0.000000 -0.000000
RightUpLeg -10.481905 -11.069644 -8.340249
RightLeg 19.034107 -0.000000 -0.000000
RightFoot -24.056381 -23.785662 21.714903
RightToeBase 23.963268 -0.000000 -0.000000
167
root 25.933637 34.882668 -21.329204 -179.255712 4.615180 -180.245765
Spine 0.576725 0.051836 -1.404344
Head 4.172719 -0.712707 0.955090
LeftShoulder -11.639804 -24.124042 -2.708315
LeftArm -19.766882 4.118611 -71.247593
LeftForeArm 7.237861 -0.000000 19.827511
LeftHand -4.559935 -0.000000 2.714953
LeftHandThumb1 -26.253704 0.000000 33.147579
RightShoulder -7.999528 -12.205759 6.662063
RightArm 17.560466 -12.291898 66.645022
RightForeArm -29.728476 0.000000 26.207531
RightHand -0.758634 0.000000 11.092759
RightHandThumb1 -24.326973 -0.000000 -32.862282
LeftUpLeg -2.480763 7.677063 8.604304
LeftLeg 11.727980 -0.000000 -0.000000
LeftFoot -26.035678 33.082972 -18.404550
LeftToeBase 25.002763 -0.000000 -0.000000
RightUpLeg -10.612861 -11.633741 -8.242998
RightLeg 19.222585 -0.000000 -0.000000
RightFoot -24.236922 -23.736655 21.451156
RightToeBase 24.043193 -0.000000 -0.000000
168
root 26.040817 34.891840 -21.299806 -179.051567 4.042929 -180.316879
Spine 0.519923 -0.333691 -1.224321
Head 3.783495 -0.530052 0.413910
LeftShoulder -11.717702 -24.214723 -2.826232
LeftArm -19.951416 3.768475 -71.205607
LeftForeArm 7.396853 -0.000000 20.247077
LeftHand -4.567128 -0.000000 2.839631
LeftHandThumb1 -26.253704 0.000000 33.147579
RightShoulder -7.847415 -12.372622 6.402580
RightArm 17.722836 -12.636849 66.488358
RightForeArm -29.778650 0.000000 26.376980
RightHand -0.550972 0.000000 10.837281
RightHandThumb1 -24.326973 -0.000000 -32.862282
LeftUpLeg -3.219866 7.475590 8.679694
LeftLeg 12.334560 -0.000000 -0.000000
LeftFoot -25.561047 32.771836 -18.358659
LeftToeBase 24.685769 -0.000000 -0.000000
RightUpLeg -10.815114 -12.235516 -8.100516
RightLeg 19.437220 -0.000000 -0.000000
RightFoot -24.411050 -23.751984 21.259317
RightToeBase 24.053105 -0.000000 -0.000000
169
root 26.133321 34.902397 -21.269214 -178.832941 3.541498 -180.534412
Spine 0.421725 -0.629468 -1.213243
Head 3.408387 -0.506642 -0.107638
LeftShoulder -11.813552 -24.194174 -2.895143
LeftArm -19.982308 3.594427 -71.252414
LeftForeArm 7.339322 -0.000000 20.548726
LeftHand -4.523827 -0.000000 2.785769
LeftHandThumb1 -26.253704 0.000000 33.147579
RightShoulder -7.637709 -12.329613 6.136498
RightArm 17.615439 -12.975040 66.397799
RightForeArm -29.738274 0.000000 26.556667
RightHand -0.529324 -0.000000 10.781722
RightHandThumb1 -24.326973 -0.000000 -32.862282
LeftUpLeg -3.931288 7.372710 8.607671
LeftLeg 12.886153 -0.000000 -0.000000
LeftFoot -24.969253 32.281432 -18.299334
LeftToeBase 24.332948 -0.000000 -0.000000
RightUpLeg -11.098874 -12.697605 -8.115513
RightLeg 19.710478 -0.000000 -0.000000
RightFoot -24.636477 -23.852589 21.068780
RightToeBase 23.875291 -0.000000 -0.000000
170
root 26.219509 34.916931 -21.234914 -178.581739 3.043999 -180.801340
Spine 0.289306 -0.836543 -1.269079
Head 3.039304 -0.521845 -0.526195
LeftShoulder -11.829535 -24.272500 -2.971748
LeftArm -20.122137 3.413160 -71.271013
LeftForeArm 7.280245 -0.000000 20.859206
LeftHand -4.564033 0.000000 2.763002
LeftHandThumb1 -26.253704 0.000000 33.147579
RightShoulder -7.545262 -12.443896 5.984075
RightArm 17.671697 -13.278569 66.186854
RightForeArm -29.713166 -0.000000 26.725092
RightHand -0.452100 0.000000 10.789020
RightHandThumb1 -24.326973 -0.000000 -32.862282
LeftUpLeg -4.663955 7.317591 8.495594
LeftLeg 13.421554 -0.000000 -0.000000
LeftFoot -24.222034 31.666380 -18.158835
LeftToeBase 23.862604 -0.000000 -0.000000
RightUpLeg -11.428097 -13.114291 -8.181345
RightLeg 19.986068 -0.000000 -0.000000
RightFoot -24.849208 -24.014979 20.851477
RightToeBase 24.013401 -0.000000 -0.000000
